<svg width="73" height="72" viewBox="0 0 73 72" fill="none" xmlns="http://www.w3.org/2000/svg">
<path fill-rule="evenodd" clip-rule="evenodd" d="M72.6466 20.7921L53.319 1.46447C51.3663 -0.488155 48.2005 -0.488155 46.2479 1.46447L45.0694 2.64298L43.8909 1.46447C41.9383 -0.488155 38.7724 -0.488155 36.8198 1.46447L1.46447 36.8198C-0.488155 38.7724 -0.488156 41.9383 1.46447 43.8909L27.3917 69.8181C29.3443 71.7707 32.5102 71.7707 34.4628 69.8181L35.6413 68.6396L36.8198 69.8181C38.7724 71.7707 41.9383 71.7707 43.8909 69.8181L72.6465 41.0624L72.6466 20.7921ZM69.3467 25.5061V36.3484L65.1041 32.1058C64.4532 31.4549 64.4532 30.3996 65.1041 29.7487L69.3467 25.5061ZM29.7487 67.4611C30.3996 68.112 31.4549 68.112 32.1058 67.4611L33.2843 66.2826L10.8926 43.8909C8.93993 41.9383 8.93994 38.7724 10.8926 36.8198L42.7124 5L41.5339 3.82149C40.883 3.17061 39.8277 3.17061 39.1768 3.82149L3.82149 39.1768C3.17062 39.8277 3.17062 40.883 3.82149 41.5339L29.7487 67.4611ZM39.1768 67.4611L13.2496 41.5338C12.5987 40.883 12.5987 39.8277 13.2496 39.1768L48.6049 3.82149C49.2558 3.17062 50.3111 3.17062 50.9619 3.82149L68.6396 21.4992L62.7471 27.3917C60.7944 29.3443 60.7944 32.5102 62.7471 34.4628L68.6396 40.3553L41.5339 67.4611C40.883 68.112 39.8277 68.112 39.1768 67.4611ZM46.6424 19.1419L27.7862 37.9981L30.1432 40.3551L48.9994 21.4989L46.6424 19.1419ZM32.4991 42.711L51.3553 23.8548L53.7123 26.2118L34.8561 45.068L32.4991 42.711ZM46.642 37.9977L37.2139 47.4258L39.5709 49.7828L48.999 40.3548L46.642 37.9977Z" fill="#216FA3"/>
</svg>
