<svg width="20" height="20" viewBox="0 0 20 20" fill="none" xmlns="http://www.w3.org/2000/svg">
<path d="M18 1.5H10V0H18C19.1046 0 20 0.895431 20 2V18C20 19.1046 19.1046 20 18 20H10V18.5H18C18.2761 18.5 18.5 18.2761 18.5 18V2C18.5 1.72386 18.2761 1.5 18 1.5Z" fill="#216FA3"/>
<path d="M4.10876 14.058C4.40165 14.3509 4.87652 14.3509 5.16942 14.058C5.46231 13.7651 5.46231 13.2902 5.16942 12.9973L2.6721 10.5H9.25C9.66421 10.5 10 10.1642 10 9.75C10 9.33579 9.66421 9 9.25 9H2.45027L5.16995 6.28033C5.46284 5.98744 5.46284 5.51256 5.16995 5.21967C4.87705 4.92678 4.40218 4.92678 4.10929 5.21967L0.244085 9.08487C0.235816 9.09244 0.227675 9.10022 0.21967 9.10823C-0.0732232 9.40112 -0.0732234 9.876 0.21967 10.1689L4.10876 14.058Z" fill="#216FA3"/>
<path d="M12 5.75C12 5.33579 12.3358 5 12.75 5H15.25C15.6642 5 16 5.33579 16 5.75C16 6.16421 15.6642 6.5 15.25 6.5H12.75C12.3358 6.5 12 6.16421 12 5.75Z" fill="#216FA3"/>
<path d="M12.75 9C12.3358 9 12 9.33579 12 9.75C12 10.1642 12.3358 10.5 12.75 10.5H15.25C15.6642 10.5 16 10.1642 16 9.75C16 9.33579 15.6642 9 15.25 9H12.75Z" fill="#216FA3"/>
<path d="M12 13.75C12 13.3358 12.3358 13 12.75 13H15.25C15.6642 13 16 13.3358 16 13.75C16 14.1642 15.6642 14.5 15.25 14.5H12.75C12.3358 14.5 12 14.1642 12 13.75Z" fill="#216FA3"/>
</svg>
