<svg width="22" height="22" viewBox="0 0 22 22" fill="none" xmlns="http://www.w3.org/2000/svg">
<path d="M4.15 11.9993C4.15 11.3642 3.63513 10.8493 3 10.8493H2.15V7.5046L11 2.33138L19.85 7.5046V10.8493H19C18.3649 10.8493 17.85 11.3642 17.85 11.9993V19.8493H14.15V16.1993C14.15 15.4537 13.5456 14.8493 12.8 14.8493H9.2C8.45441 14.8493 7.85 15.4537 7.85 16.1993V19.8493H4.15V11.9993ZM1.41965 6.42572C1.06686 6.63194 0.85 7.00989 0.85 7.41854V10.9993C0.85 11.6344 1.36487 12.1493 2 12.1493H2.85V19.9993C2.85 20.6344 3.36487 21.1493 4 21.1493H8.8C8.9933 21.1493 9.15 20.9926 9.15 20.7993V16.1993C9.15 16.1717 9.17239 16.1493 9.2 16.1493H12.8C12.8276 16.1493 12.85 16.1717 12.85 16.1993V20.7993C12.85 20.9926 13.0067 21.1493 13.2 21.1493H18C18.6351 21.1493 19.15 20.6344 19.15 19.9993V12.1493H20C20.6351 12.1493 21.15 11.6344 21.15 10.9993V7.41854C21.15 7.00989 20.9331 6.63194 20.5804 6.42572L11.5803 1.16481C11.2218 0.955235 10.7782 0.955236 10.4197 1.16481L1.41965 6.42572Z" fill="#216FA3" stroke="#216FA3" stroke-width="0.3"/>
</svg>
